<?xml version="1.0" standalone="no"?>
<!DOCTYPE svg PUBLIC "-//W3C//DTD SVG 20010904//EN"
 "http://www.w3.org/TR/2001/REC-SVG-20010904/DTD/svg10.dtd">
<svg version="1.0" xmlns="http://www.w3.org/2000/svg"
 width="958.000000pt" height="1280.000000pt" viewBox="0 0 958.000000 1280.000000"
 preserveAspectRatio="xMidYMid meet">

<g transform="translate(0.000000,1280.000000) scale(0.100000,-0.100000)"
fill="#000000" stroke="none">
<path d="M8782 12681 c-61 -76 -169 -271 -758 -1363 -377 -700 -718 -1331
-756 -1401 -74 -136 -74 -137 -20 -169 l29 -17 659 1267 c362 697 718 1381
790 1520 72 138 130 252 129 252 0 0 -33 -40 -73 -89z"/>
<path d="M7166 9727 c-13 -23 -151 -278 -306 -567 -156 -289 -309 -573 -342
-632 l-59 -108 15 -77 c8 -43 16 -87 18 -97 3 -16 130 225 709 1339 l67 130
-39 27 -38 27 -25 -42z"/>
<path d="M6148 7840 l-66 -124 61 -21 62 -21 12 21 c13 21 15 125 5 215 l-7
55 -67 -125z"/>
<path d="M5890 7360 l-20 -40 79 0 c78 0 91 6 91 40 0 6 -103 40 -123 40 -4 0
-16 -18 -27 -40z"/>
<path d="M5623 6867 c-128 -238 -233 -438 -233 -444 0 -10 128 -69 134 -62 5
6 486 932 486 936 0 1 -35 3 -77 3 l-78 -1 -232 -432z"/>
<path d="M5108 5913 c-111 -207 -204 -380 -206 -385 -5 -11 65 15 161 60 l82
39 153 295 c83 162 152 298 152 301 0 8 -115 67 -129 67 -5 0 -101 -170 -213
-377z"/>
<path d="M5040 5495 c-14 -8 -65 -31 -115 -51 l-90 -36 -175 -326 -174 -325
-756 7 c-1243 11 -1444 10 -1448 -7 -4 -19 -43 -14 683 -97 1259 -145 1366
-158 1372 -163 3 -3 -8 -29 -24 -57 l-28 -52 -893 1 c-848 2 -893 1 -890 -16
3 -17 216 -112 1225 -550 l272 -118 4 -170 c7 -313 -2 -2789 -11 -2895 -7 -81
-15 -120 -37 -168 -72 -160 -291 -266 -595 -290 l-95 -7 -3 -87 -3 -88 871 0
870 0 0 90 0 90 -57 0 c-32 0 -99 7 -149 15 -250 40 -418 134 -485 270 -29 59
-32 76 -40 207 -14 237 -22 1598 -14 2329 l7 687 262 110 c143 61 414 176 601
255 187 80 588 249 890 377 303 128 571 241 598 252 32 14 47 26 47 39 0 18
-13 19 -282 19 -156 0 -373 3 -484 7 -200 6 -201 6 -206 -15 l-6 -22 312 0
c172 0 368 -3 435 -7 l123 -6 -268 -114 c-148 -62 -331 -140 -406 -172 -96
-41 -138 -54 -138 -45 0 8 -10 14 -22 14 -13 0 -250 27 -528 59 -278 33 -944
109 -1480 170 -536 62 -988 115 -1004 119 -30 7 101 7 1719 -7 566 -6 1033 -7
1037 -5 4 3 8 12 8 20 0 12 -39 14 -247 14 -137 0 -311 3 -389 7 l-140 6 139
266 c191 365 248 481 240 481 -5 -1 -19 -7 -33 -15z m200 -1099 c110 -13 98
-14 -312 -15 -236 0 -428 1 -428 4 0 8 30 67 41 81 6 7 94 1 296 -23 159 -19
340 -40 403 -47z m-386 -52 l850 -6 -190 -80 c-104 -44 -423 -179 -709 -300
-286 -121 -526 -222 -532 -225 -10 -4 -13 13 -13 66 l0 71 -130 0 -130 0 0
-65 0 -66 -27 15 c-16 7 -183 81 -373 164 -860 374 -995 433 -999 437 -2 3
313 2 700 0 387 -3 1086 -8 1553 -11z m-744 -2404 l0 -1900 -405 0 -405 0 0
48 0 48 131 18 c355 48 553 184 589 406 19 117 30 1187 24 2248 l-7 1032 36 0
37 0 0 -1900z m113 303 c3 -1016 9 -1624 15 -1670 34 -234 245 -378 620 -424
l102 -12 0 -49 0 -48 -405 0 -405 0 0 1900 0 1900 34 0 35 0 4 -1597z"/>
</g>
</svg>
